<?xml version="1.0" standalone="no"?>
<!DOCTYPE svg PUBLIC "-//W3C//DTD SVG 20010904//EN"
 "http://www.w3.org/TR/2001/REC-SVG-20010904/DTD/svg10.dtd">
<svg version="1.0" xmlns="http://www.w3.org/2000/svg"
 width="376.000000pt" height="134.000000pt" viewBox="0 0 376.000000 134.000000"
 preserveAspectRatio="xMidYMid meet">

<g transform="translate(0.000000,134.000000) scale(0.100000,-0.100000)"
fill="#000000" stroke="none">
<path d="M3009 1326 c-20 -7 -84 -41 -143 -77 -152 -90 -159 -103 -166 -308
l-5 -153 -109 -63 c-188 -109 -196 -121 -196 -330 0 -203 8 -217 180 -317 172
-100 197 -100 376 2 67 39 124 70 127 70 3 0 56 -29 116 -64 61 -36 127 -70
147 -76 56 -19 109 -4 225 61 178 100 191 119 197 296 5 138 -6 200 -44 250
-14 19 -77 62 -149 104 l-125 72 0 146 c-1 209 -8 224 -180 323 -141 81 -178
90 -251 64z m189 -152 c53 -30 104 -62 112 -70 11 -11 16 -46 20 -129 3 -63 2
-115 -1 -115 -3 0 -41 20 -84 45 -44 25 -95 50 -114 56 -59 20 -126 4 -221
-51 -48 -27 -90 -50 -94 -50 -13 0 -6 215 8 233 22 29 218 137 249 137 16 0
70 -24 125 -56z m22 -376 c60 -35 112 -69 114 -75 3 -7 3 -72 -1 -145 -6 -123
-8 -133 -32 -159 -25 -27 -210 -139 -230 -139 -5 0 -59 29 -120 65 -76 45
-116 75 -126 95 -12 24 -15 59 -13 162 l3 132 110 63 c144 82 152 82 295 1z
m-501 -383 c24 -58 61 -94 152 -146 105 -60 106 -51 -17 -120 -39 -21 -84 -39
-100 -39 -39 0 -235 117 -251 150 -8 16 -13 69 -13 142 0 140 3 145 125 217
l80 47 6 -111 c3 -60 11 -123 18 -140z m834 191 c96 -54 97 -57 97 -212 0
-125 -1 -133 -23 -154 -39 -37 -209 -130 -239 -130 -16 0 -69 23 -119 52 l-91
51 84 48 c97 57 152 111 167 165 6 22 11 86 11 143 l0 103 23 -14 c12 -8 52
-32 90 -52z"/>
<path d="M790 810 c0 -113 1 -120 20 -120 19 0 20 7 20 120 0 113 -1 120 -20
120 -19 0 -20 -7 -20 -120z"/>
<path d="M1010 830 l0 -100 -35 0 -35 0 0 55 c0 50 -2 55 -22 55 -22 0 -23 -4
-25 -83 -2 -69 -5 -85 -23 -99 -28 -23 -27 -52 3 -42 30 9 48 24 58 51 7 19
16 23 48 23 63 0 71 15 71 136 0 97 -1 104 -20 104 -19 0 -20 -7 -20 -100z"/>
<path d="M1100 810 c0 -113 1 -120 20 -120 19 0 20 7 20 120 0 113 -1 120 -20
120 -19 0 -20 -7 -20 -120z"/>
<path d="M1300 901 c0 -26 17 -36 35 -21 18 15 8 40 -16 40 -12 0 -19 -7 -19
-19z"/>
<path d="M196 839 c-21 -17 -26 -29 -26 -65 l0 -45 -57 3 -58 3 -5 44 c-6 52
-25 64 -40 26 -13 -35 -3 -71 27 -95 20 -16 41 -20 99 -20 l74 0 0 55 c0 47 3
57 25 71 13 8 29 13 35 9 5 -3 10 -35 10 -71 l0 -64 225 0 c214 0 225 1 225
19 0 10 -7 21 -15 25 -9 3 -15 19 -15 41 0 47 -36 85 -82 85 -46 0 -66 -14
-49 -34 9 -11 18 -13 31 -6 28 15 60 -14 60 -56 l0 -34 -69 0 -68 0 -6 47 c-3
32 -12 53 -27 65 -26 21 -79 24 -104 5 -16 -12 -16 -14 -3 -26 12 -9 21 -10
36 -1 28 14 61 -18 61 -60 l0 -30 -80 0 -80 0 0 65 0 65 -49 0 c-34 0 -56 -6
-75 -21z"/>
<path d="M1363 836 c-22 -19 -28 -32 -27 -65 l1 -41 -38 0 c-44 0 -63 24 -53
63 4 18 1 26 -12 31 -40 15 -48 -71 -9 -109 22 -23 31 -25 125 -25 113 0 132
6 150 49 36 88 -64 159 -137 97z m99 -44 c9 -34 -9 -62 -41 -62 -33 0 -47 25
-37 65 10 40 68 38 78 -3z"/>
<path d="M1974 834 c-21 -20 -25 -33 -22 -65 3 -37 2 -39 -24 -39 -26 0 -28 3
-28 38 0 75 -83 108 -158 62 -39 -24 -42 -24 -42 -5 0 8 -7 15 -15 15 -12 0
-15 -13 -15 -55 l0 -55 -35 0 -35 0 0 55 c0 48 -2 55 -20 55 -18 0 -20 -7 -20
-85 0 -74 -3 -86 -20 -97 -11 -7 -20 -20 -20 -30 0 -29 60 -1 74 33 l10 29
126 0 c77 0 130 4 137 11 8 8 13 8 17 0 4 -7 43 -11 97 -11 82 0 92 2 114 25
17 16 25 35 25 60 0 77 -92 114 -146 59z m104 -53 c7 -46 -56 -72 -78 -32 -14
28 -13 38 11 62 18 18 23 19 42 6 12 -8 23 -24 25 -36z m-234 23 c17 -16 20
-33 10 -58 -5 -13 -22 -16 -76 -16 l-71 0 25 33 c25 32 62 57 85 57 6 0 19 -7
27 -16z"/>
<path d="M73 639 c-16 -16 -5 -39 19 -39 14 0 19 6 16 22 -4 25 -19 33 -35 17z"/>
<path d="M150 640 c-18 -11 -4 -42 17 -38 10 2 19 10 21 19 4 19 -19 31 -38
19z"/>
<path d="M611 641 c-19 -12 -6 -43 16 -39 10 2 18 12 18 22 0 22 -14 29 -34
17z"/>
<path d="M290 410 c0 -123 1 -130 20 -130 19 0 20 7 20 130 0 123 -1 130 -20
130 -19 0 -20 -7 -20 -130z"/>
<path d="M734 526 c-8 -21 3 -36 27 -36 15 0 20 6 17 22 -4 27 -35 37 -44 14z"/>
<path d="M830 410 c0 -123 1 -130 20 -130 18 0 20 7 20 59 0 66 18 93 48 74
12 -7 18 -27 20 -72 3 -58 4 -61 29 -61 26 0 26 0 20 63 -3 34 -9 70 -12 79
-9 22 -58 41 -84 33 -19 -6 -21 -2 -21 39 0 39 -3 46 -20 46 -19 0 -20 -7 -20
-130z"/>
<path d="M1034 526 c-8 -21 3 -36 27 -36 15 0 20 6 17 22 -4 27 -35 37 -44 14z"/>
<path d="M1250 411 l0 -129 54 -6 c60 -8 86 1 110 36 49 70 -31 177 -103 138
-20 -10 -21 -8 -21 40 0 43 -3 50 -20 50 -19 0 -20 -7 -20 -129z m127 -17 c15
-24 15 -29 2 -53 -17 -31 -50 -38 -73 -16 -21 21 -20 53 1 77 23 25 50 22 70
-8z"/>
<path d="M1900 410 c0 -123 1 -130 20 -130 15 0 20 7 20 24 0 40 21 43 50 8
15 -18 36 -32 48 -32 29 0 27 8 -13 55 l-34 40 36 37 37 38 -29 0 c-19 0 -40
-11 -62 -32 l-33 -32 0 77 c0 70 -2 77 -20 77 -19 0 -20 -7 -20 -130z"/>
<path d="M97 440 c-39 -31 -50 -65 -36 -107 15 -47 54 -65 124 -57 l55 7 0 83
c0 80 -1 84 -22 84 -13 0 -39 3 -58 6 -27 4 -42 1 -63 -16z m92 -51 c13 -24
13 -29 -2 -53 -31 -47 -87 -26 -87 33 0 27 28 53 53 49 12 -2 28 -15 36 -29z"/>
<path d="M420 449 c-35 -14 -40 -26 -40 -101 0 -61 2 -68 20 -68 18 0 20 7 20
58 0 61 11 82 43 82 12 0 17 6 15 17 -4 21 -24 25 -58 12z"/>
<path d="M532 435 c-27 -22 -32 -34 -32 -70 0 -36 5 -48 32 -70 26 -22 38 -26
67 -21 20 3 46 6 59 6 21 0 22 4 22 85 0 81 -1 85 -22 85 -13 0 -39 3 -59 6
-29 5 -41 1 -67 -21z m90 -32 c22 -20 23 -51 1 -75 -20 -22 -46 -23 -67 -2
-21 20 -20 53 1 76 20 22 41 23 65 1z"/>
<path d="M1514 450 c-60 -25 -72 -104 -24 -152 27 -26 36 -30 68 -24 20 3 47
6 60 6 21 0 22 4 22 85 l0 85 -27 0 c-16 -1 -39 1 -53 4 -14 3 -35 1 -46 -4z
m68 -47 c22 -20 23 -56 2 -77 -20 -21 -43 -20 -66 1 -22 20 -23 51 -1 75 20
22 41 23 65 1z"/>
<path d="M1728 453 l-38 -4 0 -85 c0 -77 2 -84 20 -84 17 0 20 7 20 44 0 60
15 96 39 96 28 0 41 -29 41 -89 0 -44 3 -51 20 -51 18 0 20 7 20 65 0 57 -3
69 -25 90 -13 14 -32 24 -42 23 -10 -1 -35 -3 -55 -5z"/>
<path d="M730 345 c0 -94 -2 -106 -20 -117 -11 -7 -20 -21 -20 -31 0 -14 5
-17 23 -12 53 16 62 38 65 155 l4 110 -26 0 -26 0 0 -105z"/>
<path d="M1030 381 c0 -82 6 -101 31 -101 17 0 19 8 19 85 0 84 0 85 -25 85
-24 0 -25 -2 -25 -69z"/>
</g>
</svg>
